# xmcd
#
# Track frame offsets:
#	150
#	12960
#	28208
#	47841
#	64388
#	82412
#	97116
#	118226
#	134498
#	146541
#	156202
#	167995
#	181285
#	195199
#	206727
#	224312
#	242834
#	255563
#
# Disc length: 3561 seconds
#
# Revision: 1
# Processed by: cddbd v1.5.2PL0 Copyright (c) Steve Scherf et al.
# Submitted via: audiograbber 1.83.01
#
DISCID=160de712
DTITLE=Tom Astor - Tom Astor and friends Duette
DYEAR=2007
DGENRE=Country
TTITLE0=I can help (with BillySwan)
TTITLE1=I need more of you (Ich brauch mehr von dir) (with the Ballamy Brothers
TTITLE1=)
TTITLE2=Johnny Cash Hit medley (with Johnny Cash)
TTITLE3=We are the same (Wir sind alle gleich) (with Kenny Rogers)
TTITLE4=I´ve always been crazy (Ich spiel mit dem Teufel) (with Waylon Jennings
TTITLE4=)
TTITLE5=I´m getting good at missing you (with Don Williams)
TTITLE6=Me and my Bobby McGee (with Kris Kristofferson)
TTITLE7=Trail of tears (with Billy Ray Cyrus)
TTITLE8=Perhaps love (with John Denver)
TTITLE9=Rock top (with Charlie McCoy)
TTITLE10=The last time (Geh nicht allein) (with Emmylou Harris)
TTITLE11=Honky tonk song (with Mark Chesnutt)
TTITLE12=Rocky mountain man (with Lionel Cartwright)
TTITLE13=Two stories wide (with Willie Nelson)
TTITLE14=Young eagle (Junger Adler) (with Joe Sun)
TTITLE15=The cold hard truth (with George Jones)
TTITLE16=Oln mountain dew (with Grandpa Jones)
TTITLE17=One night (with Wanda Jackson and The Jordanaires)
EXTD=
EXTT0=
EXTT1=
EXTT2=
EXTT3=
EXTT4=
EXTT5=
EXTT6=
EXTT7=
EXTT8=
EXTT9=
EXTT10=
EXTT11=
EXTT12=
EXTT13=
EXTT14=
EXTT15=
EXTT16=
EXTT17=
PLAYORDER=
